/* XPM */
static char * en_xpm[] = {
"18 12 162 2",
"  	c None",
". 	c #000000",
"+ 	c #FFFFFF",
"@ 	c #BC6263",
"# 	c #BA6264",
"$ 	c #B97273",
"% 	c #EC9698",
"& 	c #F2BABB",
"* 	c #AE2B30",
"= 	c #AF2F33",
"- 	c #B13A3F",
"; 	c #B8474B",
"> 	c #D66468",
", 	c #E16D71",
"' 	c #E57378",
") 	c #E07075",
"! 	c #D98386",
"~ 	c #AD6C6E",
"{ 	c #C29294",
"] 	c #DCA8AA",
"^ 	c #D2A7A9",
"/ 	c #C9A9AA",
"( 	c #F9DBDC",
"_ 	c #F5DBDC",
": 	c #A72830",
"< 	c #A72E36",
"[ 	c #A83C43",
"} 	c #BE454D",
"| 	c #AF4148",
"1 	c #B9464E",
"2 	c #B1434A",
"3 	c #B0464B",
"4 	c #6C2B2F",
"5 	c #C04E55",
"6 	c #C4535A",
"7 	c #D15B62",
"8 	c #D45D65",
"9 	c #D15D65",
"0 	c #CE5B63",
"a 	c #934A4F",
"b 	c #D77178",
"c 	c #DD767D",
"d 	c #D37176",
"e 	c #CA7D81",
"f 	c #E69DA1",
"g 	c #CEA2A5",
"h 	c #E6C5C7",
"i 	c #C8B8B9",
"j 	c #9A0E18",
"k 	c #9C111C",
"l 	c #9B111B",
"m 	c #9E131D",
"n 	c #9C131D",
"o 	c #9D1721",
"p 	c #A51B25",
"q 	c #A81F29",
"r 	c #A3232C",
"s 	c #9F222B",
"t 	c #A62731",
"u 	c #B12B35",
"v 	c #B52F39",
"w 	c #A82C35",
"x 	c #C03C46",
"y 	c #B33942",
"z 	c #C4454E",
"A 	c #CE4F58",
"B 	c #D0545D",
"C 	c #C04F57",
"D 	c #A7454C",
"E 	c #C3525A",
"F 	c #D45C65",
"G 	c #D1636B",
"H 	c #D66A72",
"I 	c #C1A0A3",
"J 	c #EEC9CC",
"K 	c #E3C2C5",
"L 	c #C4A7AA",
"M 	c #EACACD",
"N 	c #9D4A56",
"O 	c #965C65",
"P 	c #C47A86",
"Q 	c #724049",
"R 	c #B0989D",
"S 	c #CDB3B8",
"T 	c #EBD3D8",
"U 	c #9D6371",
"V 	c #A8707E",
"W 	c #978287",
"X 	c #C0ABB0",
"Y 	c #C0A5AC",
"Z 	c #B69FA5",
"` 	c #D5BBC2",
" .	c #DAC0C7",
"..	c #E6CCD3",
"+.	c #C6B3B8",
"@.	c #ECD8DE",
"#.	c #7E5870",
"$.	c #9A8091",
"%.	c #8F6D86",
"&.	c #B5A1B1",
"*.	c #4D4F7B",
"=.	c #A2A3B4",
"-.	c #525574",
";.	c #1D2970",
">.	c #46508C",
",.	c #292E4A",
"'.	c #57609A",
").	c #646B95",
"!.	c #A9ACBD",
"~.	c #05135C",
"{.	c #686F90",
"].	c #A6ACC8",
"^.	c #A2A9C7",
"/.	c #516095",
"(.	c #636D90",
"_.	c #8890AE",
":.	c #36477D",
"<.	c #5C6CA1",
"[.	c #6D7799",
"}.	c #8993B4",
"|.	c #203776",
"1.	c #263C7A",
"2.	c #6A7BAE",
"3.	c #7582A6",
"4.	c #103074",
"5.	c #4E669C",
"6.	c #546CA1",
"7.	c #516796",
"8.	c #7384A9",
"9.	c #687798",
"0.	c #8E9FC4",
"a.	c #D3D9E7",
"b.	c #E9ECF3",
"c.	c #0D2E72",
"d.	c #0E234E",
"e.	c #2B4373",
"f.	c #758BB8",
"g.	c #717F9C",
"h.	c #909296",
"i.	c #4D648C",
"j.	c #B8BDC6",
"k.	c #445A7E",
"l.	c #ADB8CA",
"m.	c #9FA8B7",
"n.	c #C8D2E2",
"o.	c #ADB1B6",
"p.	c #9AADBF",
"q.	c #D1E2F1",
"r.	c #C1CBD3",
"s.	c #E4EFF7",
"t.	c #E7C3C2",
"u.	c #7A5252",
"v.	c #C58C8C",
"w.	c #AD8383",
"x.	c #CCA5A5",
"y.	c #C5A1A1",
"z.	c #F0CECE",
"A.	c #EFD0D0",
"B.	c #D2C0C0",
"C.	c #CFBEBE",
"D.	c #FCE9E9",
"E.	c #F4E3E3",
". . . . . . . . . . . . . . . . . . ",
". 4 u.h.g.2.'._.; = {.~.4.).P % D.. ",
". ,.Q ~ E.n./.[.- * (.|.%.d & b.0.. ",
". d.k.&.f t.r.m.< : =.V ! E.q.f.5.. ",
". W X @.h g / y.s r ^ ] M _ .. .S . ",
". D c G 1 t n j m q v z B F 0 C | . ",
". b H 5 w o l k p u x A 8 9 E 2 [ . ",
". T ` Y L I { x.y } z.( J K +.Z R . ",
". 6.7.p.i # U !.6 7 a.s.A.e $.i.e.. ",
". 8.j.v.3 #.1.3.> , ^.<.l.C.$ O -.. ",
". B.@ N *.c.;.}.) ' ].>.:.9.o.w.a . ",
". . . . . . . . . . . . . . . . . . "};
