/* XPM */
static char * fr_xpm[] = {
"18 12 138 2",
"  	c None",
". 	c #000000",
"+ 	c #000246",
"@ 	c #191B63",
"# 	c #3A3A86",
"$ 	c #7476C0",
"% 	c #EAF0EA",
"& 	c #E1E1E1",
"* 	c #D2D2D2",
"= 	c #CCCCCC",
"- 	c #D0BDBD",
"; 	c #D21B1B",
"> 	c #DE2121",
", 	c #EC3535",
"' 	c #F74646",
") 	c #F95050",
"! 	c #111359",
"~ 	c #32347E",
"{ 	c #6668B4",
"] 	c #6A6CB8",
"^ 	c #DAE1DA",
"/ 	c #D4D4D4",
"( 	c #CDCDCD",
"_ 	c #CECECE",
": 	c #D6C3C3",
"< 	c #DB2727",
"[ 	c #E82F2F",
"} 	c #F44242",
"| 	c #F94F4F",
"1 	c #F45050",
"2 	c #0A0C52",
"3 	c #2A2C76",
"4 	c #5A5CA8",
"5 	c #6466B6",
"6 	c #5456A8",
"7 	c #CBD2CB",
"8 	c #DECBCB",
"9 	c #E53635",
"0 	c #F23E3E",
"a 	c #F94D4D",
"b 	c #F65151",
"c 	c #E94949",
"d 	c #21236B",
"e 	c #464894",
"f 	c #686ABA",
"g 	c #5052A8",
"h 	c #3B3D95",
"i 	c #C1C9C1",
"j 	c #CDCDCC",
"k 	c #D1D1D1",
"l 	c #DBDBDB",
"m 	c #E8D5D6",
"n 	c #EF4444",
"o 	c #F84A4A",
"p 	c #F85151",
"q 	c #ED4C4C",
"r 	c #DB3F3E",
"s 	c #3B3D87",
"t 	c #6B6DBB",
"u 	c #585AAE",
"v 	c #383B94",
"w 	c #252885",
"x 	c #BEC5BE",
"y 	c #D0D0D0",
"z 	c #D8D8D8",
"A 	c #E4E4E4",
"B 	c #F2E0E0",
"C 	c #F75050",
"D 	c #F14E4E",
"E 	c #E04242",
"F 	c #CD3434",
"G 	c #6569B5",
"H 	c #5F61B3",
"I 	c #40429C",
"J 	c #1F2183",
"K 	c #17197B",
"L 	c #BDC5BD",
"M 	c #D6D6D6",
"N 	c #EEEEEE",
"O 	c #FAE9E9",
"P 	c #F95958",
"Q 	c #E44646",
"R 	c #D03536",
"S 	c #C53030",
"T 	c #6466B8",
"U 	c #484AA2",
"V 	c #272A89",
"W 	c #0D0F75",
"X 	c #101278",
"Y 	c #BEC6BE",
"Z 	c #DEDEDE",
"` 	c #EBEBEB",
" .	c #F8F8F8",
"..	c #FFEEEE",
"+.	c #F65B5B",
"@.	c #D53A3A",
"#.	c #C83231",
"$.	c #BD2C2C",
"%.	c #5052AA",
"&.	c #2F318F",
"*.	c #12157A",
"=.	c #030671",
"-.	c #0F1177",
";.	c #C2CAC2",
">.	c #E8E8E8",
",.	c #F5F5F5",
"'.	c #FEFEFE",
").	c #FDEDED",
"!.	c #ED5555",
"~.	c #CA3333",
"{.	c #C02D2D",
"].	c #B52626",
"^.	c #383A96",
"/.	c #181B7E",
"(.	c #050873",
"_.	c #00036E",
":.	c #13157B",
"<.	c #C9D1C9",
"[.	c #F2F2F2",
"}.	c #FCFCFC",
"|.	c #F6E6E6",
"1.	c #E04B4B",
"2.	c #CE3434",
"3.	c #C32E2E",
"4.	c #B72828",
"5.	c #AB2121",
"6.	c #090C75",
"7.	c #000370",
"8.	c #1B1D81",
"9.	c #D2DAD2",
"0.	c #FAFAFA",
"a.	c #FFFFFF",
"b.	c #F9F9F9",
"c.	c #EADBDA",
"d.	c #D03F3E",
"e.	c #BA2A2A",
"f.	c #AE2323",
"g.	c #A31B1B",
". . . . . . . . . . . . . . . . . . ",
". + + @ # $ % & * = = - ; > , ' ) . ",
". + ! ~ { ] ^ / ( = _ : < [ } | 1 . ",
". 2 3 4 5 6 7 _ = ( / 8 9 0 a b c . ",
". d e f g h i = j k l m n o p q r . ",
". s t u v w x = y z A B C ) D E F . ",
". G H I J K L _ M & N O P 1 Q R S . ",
". T U V W X Y / Z `  ...+.c @.#.$.. ",
". %.&.*.=.-.;.l >.,.'.).!.r ~.{.].. ",
". ^./.(._.:.<.A [.}.'.|.1.2.3.4.5.. ",
". J 6.7.=.8.9.N 0.a.b.c.d.S e.f.g.. ",
". . . . . . . . . . . . . . . . . . "};
